<svg xmlns="http://www.w3.org/2000/svg"  viewBox="0 0 64 64" width="50px" height="50px"><path fill="#85cbf8" d="M5 7H59V57H5z"/><rect width="54" height="11" x="5" y="7" fill="#ace3ff" rx="3" ry="3"/><path fill="#6fc6f0" d="M58,57H6a1,1,0,0,1-1-1H5a4,4,0,0,1,4-4H55a4,4,0,0,1,4,4h0A1,1,0,0,1,58,57Z"/><path fill="#ffeb9b" d="M30 15A14 14 0 1 0 30 43A14 14 0 1 0 30 15Z"/><path fill="#f6d397" d="M38.08,37.08,21.92,20.92a2.32,2.32,0,0,0-3.57.31A14,14,0,0,0,37.77,40.65,2.32,2.32,0,0,0,38.08,37.08Z"/><path fill="#bbdef9" d="M30 19A10 10 0 1 0 30 39A10 10 0 1 0 30 19Z"/><path fill="#d2edff" d="M30 23A6 6 0 1 0 30 35A6 6 0 1 0 30 23Z"/><path fill="#f3f3f3" d="M26.78 23.560000000000002A2.22 2.22 0 1 0 26.78 28 2.22 2.22 0 1 0 26.78 23.560000000000002zM33.5 32.67A.83.83 0 1 0 33.5 34.33.83.83 0 1 0 33.5 32.67z"/><path fill="#cda1a7" d="M40.18 37.07H45.78V46.97H40.18z" transform="rotate(-45 42.978 42.028)"/><path fill="#8d6c9f" d="M57,6H7A3,3,0,0,0,4,9V55a3,3,0,0,0,3,3H57a3,3,0,0,0,3-3V9A3,3,0,0,0,57,6Zm1,49a1,1,0,0,1-1,1H7a1,1,0,0,1-1-1V9A1,1,0,0,1,7,8H57a1,1,0,0,1,1,1Z"/><path fill="#8d6c9f" d="M14 50a1 1 0 0 0-1 1v2a1 1 0 0 0 2 0V51A1 1 0 0 0 14 50zM9 50a1 1 0 0 0-1 1v2a1 1 0 0 0 2 0V51A1 1 0 0 0 9 50zM29 50a1 1 0 0 0-1 1v2a1 1 0 0 0 2 0V51A1 1 0 0 0 29 50zM34 50a1 1 0 0 0-1 1v2a1 1 0 0 0 2 0V51A1 1 0 0 0 34 50zM39 50a1 1 0 0 0-1 1v2a1 1 0 0 0 2 0V51A1 1 0 0 0 39 50zM44 50a1 1 0 0 0-1 1v2a1 1 0 0 0 2 0V51A1 1 0 0 0 44 50zM49 50a1 1 0 0 0-1 1v2a1 1 0 0 0 2 0V51A1 1 0 0 0 49 50zM54 50a1 1 0 0 0-1 1v2a1 1 0 0 0 2 0V51A1 1 0 0 0 54 50zM19 50a1 1 0 0 0-1 1v2a1 1 0 0 0 2 0V51A1 1 0 0 0 19 50zM24 50a1 1 0 0 0-1 1v2a1 1 0 0 0 2 0V51A1 1 0 0 0 24 50zM47.88 41.29l-4.59-4.59c-.09-.09-.26-.31-.25-.34a15.07 15.07 0 1 0-5.46 5.55s.22.12.3.2l4.59 4.59a3.83 3.83 0 1 0 5.41-5.41zM17 29A13 13 0 1 1 30 42 13 13 0 0 1 17 29zM46.46 45.29a1.83 1.83 0 0 1-2.59 0l-4.56-4.56a15.11 15.11 0 0 0 2.56-2.61l4.58 4.59a1.83 1.83 0 0 1 0 2.59z"/><path fill="#8d6c9f" d="M19.17,28.91A10.91,10.91,0,1,0,30.09,18,10.93,10.93,0,0,0,19.17,28.91Zm2,0a8.91,8.91,0,1,1,8.91,8.91A8.92,8.92,0,0,1,21.17,28.91Z"/><path fill="#8d6c9f" d="M30.09,21.83a7.08,7.08,0,0,1,6.52,4.31,1,1,0,1,1-1.84.79,5.08,5.08,0,0,0-4.68-3.09,1,1,0,0,1,0-2Z"/></svg>